<svg xmlns="http://www.w3.org/2000/svg" width="87.587" height="107.245" viewBox="0 0 87.587 107.245"><defs><style>.a{fill:#00a99d;}.b{fill:#fff;}.c{fill:#3c7c6f;stroke:#00a99d;stroke-linecap:round;stroke-miterlimit:10;}</style></defs><g transform="translate(-819.5 -282.516)"><g transform="translate(819.5 282.516)"><path class="a" d="M834.765,387.3l-6.759-.847L819.5,359.824l8.261-.454,5.738,15.844Z" transform="translate(-819.5 -328.911)"/><path class="a" d="M866.67,373.7l-9.512-.793-2.194-37.821h8.323Z" transform="translate(-840.909 -314.252)"/><path class="a" d="M992.5,387.028l10.3-1.982,8.719-24.968-8.719-.944Z" transform="translate(-923.936 -328.769)"/><path class="a" d="M927.012,374.941H917.5l.184-40.425h8.931Z" transform="translate(-878.66 -313.907)"/><path class="a" d="M895.463,346.973l-9.908-.79-2.59-57.668H891.9Z" transform="translate(-857.812 -286.138)"/><path class="a" d="M977.085,341.568l6.129-1.189,2.59-57.863h-8.931L975.5,310.655Z" transform="translate(-913.674 -282.516)"/><path class="a" d="M954.048,353.83l-9.908.793-4.175-53.107H948.9Z" transform="translate(-892.222 -293.986)"/><path class="a" d="M869.5,434.857c12.466-.792,40.623-6.341,40.623-6.341l-5.85,49.382s-20.7-6.1-32-5.941-35.867,4.91-35.867,4.91l-5.152-48.351S857.011,435.65,869.5,434.857Z" transform="translate(-826.593 -370.653)"/></g><rect class="b" width="36.871" height="22.597" rx="4.827" transform="translate(844.66 351.265)"/><circle class="a" cx="4.161" cy="4.161" r="4.161" transform="translate(858.934 359)"/><circle class="a" cx="1.222" cy="1.222" r="1.222" transform="translate(871.089 355.131)"/><line class="c" x2="4.36" transform="translate(852.197 355.131)"/></g></svg>